<?xml version="1.0" encoding="UTF-8"?>
<svg version="1.1" viewBox="0 0 1600 1600" width="1280" height="1280" xmlns="http://www.w3.org/2000/svg">
<path transform="translate(833 628)" d="m0 0c3.17-0.06 6.34-0.11 9.51-0.15 1.43-0.02 2.85-0.06 4.28-0.1 8.04-0.24 14.1-0.15 20.2 5.4 1.93 1.93 3.64 3.92 5.31 6.06 0.94 1.16 1.88 2.31 2.83 3.46 0.47 0.58 0.94 1.16 1.43 1.76 9.74 11.7 20.6 22.2 32.4 31.7 7.31 5.95 14.3 12.1 20.9 18.9 3.21 3.31 6.56 6.23 10.1 9.14 2.37 2.19 2.37 2.19 4 4v2c0.56 0.23 1.11 0.45 1.68 0.69 3 1.7 5 3.88 7.38 6.37 4.49 4.62 9.21 8.74 14.2 12.8 3.53 2.86 6.85 5.92 10.2 8.99 2.59 2.27 5.29 4.28 8.06 6.32 3.32 2.62 4.32 3.54 5.81 7.62-0.37 3.25-0.37 3.25-2.12 5.63-5.73 4.14-13.5 3.21-20.2 2.16-9.98-2.3-20.4-6.02-29.1-11.5 0.22 0.8 0.43 1.6 0.66 2.42 0.41 1.59 0.41 1.59 0.84 3.21 0.42 1.56 0.42 1.56 0.84 3.16 0.88 4.31 1.57 7.78-0.84 11.6-3.47 2.25-6.53 2.25-10.5 1.62-14.3-5.42-20.9-20.1-27-33-0.53-1.47-0.53-1.47-1.07-2.98-2.98-4.67-7.3-7.09-11.9-10-0.85-0.55-1.71-1.09-2.59-1.66-5.31-3.36-10.7-6.61-16-9.88-1.87-1.15-3.71-2.35-5.54-3.57-9.94-6.43-21.6-9.41-32.8-12.9-4.96 22.4-4.96 22.4 0 44 3.9 5.76 8.38 10.4 13.6 15 9.02 8.01 14.6 18.5 15.7 30.6 0.21 8.55-0.46 16.1-5.91 22.9-2.7 2.77-3.49 3.38-7.25 3.88-4.32-0.51-5.34-2.14-8.19-5.38-1.55-2.3-2.9-4.7-4.25-7.12-4-6.87-8.42-13-13.8-18.9-0.65-0.74-0.65-0.74-1.31-1.5-10.8-12.3-23.5-17.4-38.6-22.9-18.9-6.84-31-16.4-44.1-31.6-1.88 0-1.88 0-4 1-1.55 2.2-2.81 4.26-4.06 6.63-0.38 0.69-0.77 1.38-1.16 2.1-2.34 4.33-4.48 8.73-6.53 13.2-0.47 1.01-0.94 2.02-1.42 3.07-0.91 1.99-1.8 4-2.67 6.01-2.89 6.34-6.02 11.4-12.2 15-2.81 0.86-5.27 0.92-8.19 0.75-0.74-0.02-1.48-0.05-2.24-0.07-21.6-1.25-44.7-18.9-58.8-34.1-4.45-5.25-8.41-10.7-9.74-17.6 1.98-9.92 12.3-18.4 18.9-25.7 1.85-2.04 3.64-4.11 5.42-6.2 3.68-4.25 7.68-8.17 11.7-12.1 2.86-2.74 2.86-2.74 5-6.04h2c0.25-0.58 0.51-1.16 0.77-1.76 1.36-2.48 2.87-4.09 4.9-6.07 1.09-1.07 1.09-1.07 2.21-2.17 0.76-0.74 1.52-1.48 2.31-2.25 4.32-4.22 8.58-8.41 12.5-13 8.11-9.42 21.3-15.1 33.3-17.7 2.95-0.12 5.87-0.18 8.82-0.2 0.89-0.01 1.78-0.02 2.7-0.03 2.97-0.03 5.93-0.06 8.89-0.08 2.09-0.02 4.18-0.05 6.27-0.07l13.2-0.12c6.61-0.06 13.2-0.12 19.8-0.19 9.5-0.1 19-0.17 28.5-0.23 5.58-0.04 11.2-0.11 16.7-0.23zm4.11 3.15c-9.31 1.37-18.6 1.27-28 1.25-3.31-0.01-6.62 0-9.94 0.01-9.4 0.04-18.8 0.06-28.2 0.05-5.78-0.01-11.6 0.01-17.3 0.04-2.18 0.01-4.37 0.01-6.55 0-18.8-0.09-35.6 2.34-50 15.6-1.78 1.96-3.5 3.96-5.22 5.97-1.66 1.9-3.4 3.66-5.22 5.41-2.79 2.25-2.79 2.25-2.56 4.62-0.99 0.33-1.98 0.66-3 1-1.61 1.59-1.61 1.59-3.19 3.56-2.49 2.95-5.05 5.74-7.81 8.44-3.28 3.23-6.3 6.59-9.29 10.1-1.63 1.83-3.32 3.53-5.09 5.23-8.81 8.19-8.81 8.19-13.6 18.7 0.93 0.33 1.85 0.65 2.81 0.99 1.2 0.44 2.39 0.87 3.63 1.32 1.19 0.43 2.39 0.86 3.62 1.31 0.97 0.45 1.94 0.91 2.94 1.38l1 3c-0.77-0.21-1.55-0.43-2.34-0.65-8.73-2.37-8.73-2.37-17.7-2.35-2.25 1.43-2.25 1.43-3 4 0.1 5.39 1.66 8.92 5 13 0.57 0.72 1.15 1.44 1.74 2.18 13.9 16.5 36.9 33.5 59 35.7 4.57 0.31 7.52-0.06 11.3-2.88 3.26-4.92 1.97-10.5 1-16-2.2-7.2-7.05-11.8-13.5-15.4-2.73-1.37-5.48-2.68-8.26-3.95-0.94-0.45-1.89-0.9-2.86-1.37-4.99-2.48-4.99-2.48-10.4-3.26v-3c31.4 11.9 31.4 11.9 35.2 19.9 0.25 0.7 0.49 1.39 0.75 2.1 0.31 0.83 0.62 1.66 0.94 2.51 0.75 2.15 1.44 4.3 2.06 6.49 3.16-2.88 5.01-5.57 6.84-9.43 0.51-1.04 1.01-2.08 1.53-3.16l3.12-6.54c4.35-8.96 4.35-8.96 7.33-12.2 2.54-3.05 3.05-4.68 3.18-8.62-0.51-3.22-0.51-3.22-1.44-6.37-0.29-1.06-0.57-2.12-0.87-3.21-0.23-0.8-0.45-1.6-0.69-2.42 1.48 0.5 1.48 0.5 3 1 1.13 2.91 1.13 2.91 2.12 6.5 0.85 4.06 0.85 4.06 2.88 7.5 21 0.63 42.7-10.5 62-17.8 3.24-1.22 6.49-2.44 9.75-3.64 2.41-0.88 4.81-1.78 7.21-2.7 6.91-2.53 11.1-3.7 18.1-1.15 0.61 0.31 1.22 0.62 1.85 0.93 3.47 1.65 6.96 3.01 10.6 4.28 17.9 6.33 34.8 17 49.6 28.7 1.74 1.51 1.74 1.51 3.85 1.31 0.14 0.57 0.27 1.14 0.41 1.73 4.03 15.2 13 29 26.6 37.3 3.59 1.14 3.59 1.14 7 0 0.24-6-0.52-10.9-2.19-16.6-1.51-5.4-2.93-10.8-4.08-16.3-0.31-1.47-0.31-1.47-0.63-2.96-0.39-1.89-0.77-3.79-1.14-5.68-1.55-7.37-4.38-12.7-10.3-17.6-0.68-0.58-1.37-1.15-2.07-1.74-0.86-0.71-1.73-1.41-2.62-2.14-0.57-0.46-1.14-0.93-1.73-1.41-3.41-2.78-6.82-5.55-10.2-8.31-3.49-2.82-6.93-5.7-10.4-8.59-4.46-3.73-9.05-7.18-13.8-10.6-7.74-5.64-15.3-11.5-22.4-18-6.29-5.74-11.2-9.25-19.6-11.1l-1-2c12.1 1.31 18.3 6.09 26.6 14.7 6.87 7.01 14.9 12.6 22.9 18.2 5.87 4.24 11.3 8.9 16.8 13.6 2.26 1.94 4.54 3.86 6.82 5.78 1.64 1.38 3.27 2.77 4.91 4.16 1.79 1.52 3.59 3.04 5.4 4.54 0.7 0.58 1.4 1.17 2.11 1.77 0.87 0.73 0.87 0.73 1.76 1.46 4.98 5.13 6.67 10.4 8.24 17.2 2.04 10.3 2.04 10.3 7.75 18.6 13.1 7.72 27.9 15.7 43.7 13 2.37-1.9 2.37-1.9 4-4-1.54-4.36-4.93-6.53-8.5-9.19-5.31-4.05-10.4-8.25-15.3-12.8-1.98-1.82-3.99-3.59-6.02-5.35-21.5-18.7-21.5-18.7-29.1-28.2-0.68-0.8-1.36-1.61-2.06-2.44h-2c-0.23-0.57-0.46-1.15-0.7-1.74-1.63-2.84-3.54-4.3-6.11-6.32-1-0.8-2-1.6-3.03-2.43-1.06-0.84-2.11-1.67-3.16-2.51-8.66-6.87-16.6-14.4-24.4-22.2l-1.43-1.43c-6.39-6.39-12.8-12.8-18.2-20.1-4.22-4.88-9.86-8.85-16.4-9.57-4.96 0.03-9.65 0.4-14.5 1.26zm-21 67.6c-0.67 0.23-1.34 0.47-2.03 0.71-4.64 1.67-9.15 3.58-13.7 5.56-7.25 3.13-14.6 5.71-22.1 8.16-1.31 0.44-2.63 0.87-3.94 1.31-9.69 3.18-19.4 6.09-29.3 8.63 2.16 4.76 5.5 8.18 9 12 0.5 0.59 1.01 1.19 1.52 1.8 9.7 10.8 24.3 15.4 37.6 19.9 23.6 8.17 37.7 24.7 50.1 45.8 2.44 4.2 2.44 4.2 6.61 6.4 1.08 0.01 1.08 0.01 2.18 0.02 5.39-5.67 7.02-10.6 7.25-18.4-0.39-13.5-4.97-23.1-14.8-32.3-0.83-0.77-1.65-1.54-2.5-2.33-2.93-2.89-5.84-5.79-8.63-8.81-0.56-0.6-1.13-1.21-1.72-1.83-4.02-5.75-5.13-11.6-4.96-18.6 0.01-1.13 0.01-1.13 0.02-2.28 0.2-9.55 1.24-19 2.29-28.5-4.7-0.38-8.59 1.03-12.9 2.63z" fill="#030303"/>
<path transform="translate(753,787)" d="m0 0c4.16 3.14 6.18 7 8.58 11.5 4.24 7.48 9.69 14 15.5 20.3 0.48 0.53 0.97 1.06 1.46 1.6 1.47 1.56 2.96 3.08 4.48 4.59 0.5 0.51 1 1.01 1.52 1.53 5.06 4.75 10.9 7.19 17.2 9.85 1.1 0.47 2.2 0.94 3.34 1.43 5.12 2.2 10.3 4.34 15.4 6.43 8.54 3.47 16.3 6.82 23.5 12.8 0.69 0.54 1.38 1.08 2.09 1.64 5.44 4.47 9.67 9.76 13.9 15.4 5.33-1.78 7.44-7.23 10-12 2.42-4.85 4.73-9.75 7-14.7 7.78-16.8 7.78-16.8 14-20.3 18.4-2.76 35.2 5.41 49.7 16 24.7 18.4 24.7 18.4 29.3 31 0.62 7.2-2.79 11.4-7 17-2.19 2.39-4.45 4.64-6.79 6.87-4.21 4.06-7.96 8.51-11.5 13.1-0.56 0.66-1.12 1.32-1.69 2h-2c-0.23 0.56-0.47 1.12-0.71 1.7-1.61 2.87-3.61 4.77-5.98 7.05-3.08 3.02-6.07 6.03-8.87 9.31-3.23 3.78-6.71 7.23-10.2 10.7-2.02 2.05-3.89 4.16-5.75 6.35-7.17 8.23-14.3 12.7-24.4 16.9-0.91 0.39-1.82 0.79-2.75 1.19-13.4 5.4-27.8 5.09-42 4.97-1.76-0.01-3.52-0.01-5.29-0.02-4.6-0.01-9.2-0.03-13.8-0.06-7.37-0.04-14.7-0.07-22.1-0.1-2.55-0.01-5.1-0.02-7.64-0.04-7.93-0.04-15.8 0.09-23.6 0.82-4.9 0.42-9.81 0.46-14.7 0.49-1.48 0.03-1.48 0.03-2.99 0.06-7.06 0.04-11.3-0.89-16.8-5.62-1.3-1.33-1.3-1.33-2.63-2.69-0.48-0.49-0.96-0.97-1.45-1.48-2.98-3.08-5.71-6.28-8.36-9.64-9.34-11.7-20.2-22.2-32.2-31-11.2-8.6-21-19.2-30.9-29.3-7.25-7.38-14.6-14.2-22.7-20.6-2.18-1.81-4.34-3.66-6.5-5.5-5.01-4.27-10.1-8.43-15.3-12.5-2.12-1.87-3.74-3.57-5.24-5.97 0.08-3.28 0.75-4.69 2.81-7.25 4.83-3.86 11.3-3.28 17.2-2.75 10.8 2.4 22.2 6.85 32 12-0.3-0.87-0.6-1.74-0.91-2.63-0.38-1.16-0.76-2.31-1.15-3.49-0.39-1.14-0.77-2.28-1.16-3.45-0.82-3.62-0.77-5.87 0.22-9.43 2.71-2.71 4.17-2.79 8-3 9.08 1.56 15 7.11 20.4 14.2 2.78 4.09 4.73 8.32 6.69 12.8 4.14 9.42 7.66 14.8 16.9 19.9 1.27 0.79 2.54 1.59 3.8 2.4 2.73 1.75 5.46 3.46 8.22 5.15 2.47 1.51 4.92 3.05 7.33 4.65 7.05 4.59 14 7.74 21.9 10.5 2.55 0.9 4.94 1.83 7.39 2.93 2.85 1.18 5.31 1.93 8.34 2.39 1.69-9.26 2.31-18.5 2.5-27.9 0.04-1.05 0.09-2.11 0.13-3.2 0.07-7.68-1.73-12.1-6.63-17.9-0.68-0.86-1.36-1.72-2.05-2.6-3.22-3.57-6.41-6.86-10.1-9.9-4.23-3.62-6.58-7.44-8.81-12.5-0.39-0.87-0.79-1.75-1.19-2.64-3.64-9.26-4.72-19.9-1.86-29.6 1.72-3.71 3.4-6.24 6.49-8.92 3.19-1.09 5.21-1.44 8.56-0.88zm-7.62 6.25c-5.77 6.68-4.99 14.1-4.58 22.6 1.06 11.9 8.31 19.7 16.9 27.1 6.86 6.33 14.2 15 15.7 24.5 0.08 2.92-0.11 5.72-0.37 8.63-0.07 0.77-0.13 1.54-0.2 2.33-0.73 8.25-1.57 16.5-2.8 24.7 4.09 1.72 7.41 0.1 11.3-1.38 0.74-0.26 1.47-0.53 2.23-0.81 6.34-2.33 12.6-4.83 18.9-7.31 16-6.32 31.9-11.3 48.7-15 1.94-0.43 1.94-0.43 3.87-1.48-0.58-3.86-2.36-5.89-4.94-8.75-0.71-0.8-1.42-1.6-2.15-2.42-1.71-2.06-1.71-2.06-3.91-1.83l-1-3c-9.39-8.63-20.2-13-32.1-17.2-1.1-0.38-2.2-0.77-3.33-1.17-2.19-0.76-4.38-1.51-6.57-2.25-17.8-6.14-28-18.8-38-34-4.1-6.23-4.1-6.23-8.32-12.4-0.63-0.91-0.63-0.91-1.27-1.84-3.04-2.75-5.29-1.27-7.97 1.03zm144 38.8c-2.81 5.62-1.04 13 0.76 18.7 4.62 8.56 11.3 11.8 20 15.7 1.15 0.54 2.3 1.08 3.48 1.64 5.18 2.76 5.18 2.76 10.8 3.92v3c-3.79-1.5-7.58-3.01-11.4-4.53-1.29-0.52-2.58-1.03-3.87-1.54-1.86-0.74-3.71-1.48-5.56-2.23-1.12-0.45-2.23-0.89-3.38-1.35-2.59-1.24-3.91-2.3-5.82-4.35h-2c-0.27-0.71-0.53-1.41-0.8-2.14-1.26-3.02-2.74-5.81-4.32-8.67-0.81-1.47-0.81-1.47-1.64-2.96-0.61-1.1-0.61-1.1-1.24-2.23-3.74 3.26-5.64 6.95-7.69 11.4-3.31 6.94-7.17 13.2-11.6 19.4-2.7 5.08-2.03 9.68-0.69 15.1 0.19 0.77 0.37 1.54 0.56 2.34 0.22 0.85 0.22 0.85 0.44 1.72-2.98-2.49-3.87-4.98-5.06-8.62-0.59-1.82-1.23-3.61-1.94-5.38-3.52-1.76-7.39-0.14-11.1 0.62-0.82 0.16-1.63 0.31-2.46 0.47-14.4 2.88-28 8.12-41.6 13.4-1.45 0.56-2.91 1.12-4.36 1.68-8.13 3.14-8.13 3.14-16.2 6.32-1.15 0.45-2.3 0.9-3.48 1.36-1.01 0.4-2.01 0.8-3.04 1.21-8.37 2.9-14.3 0.15-22-3.44-3.41-1.57-6.89-2.73-10.5-3.88-12.3-4.31-23-11.9-33.8-19-0.74-0.48-1.47-0.97-2.23-1.46-13.4-9.01-13.4-9.01-15.2-15.4-3.57-11.2-10.4-23.2-20.7-29.4-2.88-1.3-5.17-2.23-8.31-2.5l-2 1c-0.08 1.48-0.14 2.96-0.19 4.44-0.03 0.82-0.07 1.64-0.1 2.49 0.25 2.68 0.7 4.48 1.59 6.97 2.55 7.24 3.97 14.8 5.57 22.3 0.43 1.99 0.87 3.97 1.31 5.95 0.38 1.75 0.38 1.75 0.77 3.54 1.92 6.02 5.25 9.79 10.2 13.6 3.71 2.93 7.28 5.92 10.8 9.13 6.52 5.92 13.6 11.1 20.6 16.4 2.74 2.06 5.48 4.13 8.22 6.2 0.91 0.69 1.82 1.38 2.76 2.09 5.56 4.24 10.9 8.58 15.9 13.4 1.53 1.63 1.53 1.63 3.64 1.41l1 3h2l1 3c5.21 4.56 9.13 5.83 16 6l-1 3c-9.22-1.5-14.6-4.28-21-11-8.59-8.77-18.2-16.2-28-23.5-4.88-3.62-9.55-7.43-14.2-11.4-3.34-2.89-6.77-5.62-10.3-8.31-13.2-10-19.3-18.9-22.4-35.2-1.16-5.5-1.16-5.5-4.4-9.98-0.88-0.51-1.76-1.02-2.67-1.54-1.28-0.76-1.28-0.76-2.59-1.53-11.7-5.89-26.2-12.6-39.4-11.5-2.46 1.34-2.46 1.34-4 3 0.26 3.54 0.83 4.83 3.37 7.39 1.01 0.8 2.02 1.6 3.07 2.42 0.81 0.65 0.81 0.65 1.64 1.32 1.63 1.3 3.27 2.59 4.92 3.87 9.01 7.07 17.6 14.5 25.6 22.7 2.07 2.54 2.07 2.54 4.38 2.31 0.26 0.6 0.52 1.2 0.79 1.82 1.29 2.33 2.5 3.48 4.59 5.12 2.15 1.77 3.81 3.3 5.56 5.5 2.33 2.89 4.9 5.13 7.72 7.54 2.65 2.29 5.21 4.65 7.78 7.02 3.16 2.89 6.31 5.64 9.75 8.19 4.57 3.47 8.74 7.33 12.9 11.2 0.67 0.62 1.34 1.24 2.03 1.88 4.01 3.77 7.7 7.71 11.3 11.9 1.92 2.21 3.96 4.26 6.06 6.3 2.89 2.85 5.65 5.75 8.31 8.81 0.56 0.65 1.13 1.3 1.71 1.97 0.49 0.57 0.98 1.13 1.48 1.72 3.67 4.22 7.21 5.77 12.8 6.23 5.94-0.09 11.8-0.32 17.8-0.73 9.41-0.59 18.8-0.65 28.2-0.67 3.04-0.01 6.07-0.02 9.11-0.04 8.63-0.05 17.2-0.1 25.9-0.12 5.31-0.01 10.6-0.04 15.9-0.08 2.01-0.01 4.01-0.01 6.02-0.01 24.7 0.02 42.2-7.51 59.9-25 0.54-0.52 1.07-1.04 1.62-1.58 2.87-2.55 2.87-2.55 3.76-6.04 1.49-0.5 1.49-0.5 3-1 1.19-1.12 2.36-2.25 3.49-3.42 1.76-1.84 3.57-3.61 5.39-5.39 3.23-3.24 6.29-6.59 9.27-10.1 2.09-2.4 4.22-4.77 6.35-7.13 9.79-9.15 9.79-9.15 15.5-20-2.12-0.67-4.25-1.34-6.38-2-1.77-0.56-1.77-0.56-3.58-1.12-2.83-0.97-2.83-0.97-5.04-0.88v-2c0.63 0.14 1.26 0.29 1.91 0.44 5.47 1.18 10.5 2.22 16.1 1.56 3.19-1.94 3.19-1.94 5-5-0.26-4.8-1.77-7.64-4.62-11.4-0.66-0.88-1.31-1.77-1.98-2.68-5.08-6.1-10.7-11.2-17.1-15.9-0.7-0.52-1.39-1.04-2.11-1.57-14-10.2-34.7-24.2-52.2-15.4z" fill="#030303"/>
<path transform="translate(1050,490)" d="m0 0c6.72 4.07 12.5 9.46 18 15-0.32 4.83-2.03 8.62-4.12 12.9-0.63 1.31-1.26 2.63-1.89 3.95-0.66 1.37-1.33 2.74-1.99 4.11-1.32 2.75-2.63 5.5-3.94 8.25-0.46 0.95-0.46 0.95-0.93 1.91-1.33 2.82-2.13 4.68-2.13 7.84 0.93-0.47 1.87-0.95 2.83-1.43 3.57-1.8 7.14-3.58 10.7-5.35 1.67-0.83 3.34-1.67 5.01-2.51 2.55-1.3 5.12-2.57 7.69-3.83 0.81-0.42 1.62-0.83 2.45-1.26 0.77-0.37 1.53-0.74 2.32-1.13 0.67-0.33 1.34-0.67 2.04-1.02 1.94-0.47 1.94-0.47 4.05 0.33 5.61 3.57 11.2 8.64 14.9 14.2v3c-0.56-0.15-1.11-0.31-1.69-0.46-4.7-0.98-4.7-0.98-9.09 0.54-0.85 0.81-0.85 0.81-1.72 1.63-0.68 0.64-1.37 1.28-2.07 1.94-0.8 0.77-1.61 1.55-2.43 2.35-1 0.95-2 1.89-3 2.84-2.81 2.67-5.58 5.37-8.34 8.09-1.16 1.14-2.32 2.27-3.49 3.4-1.71 1.64-3.4 3.29-5.08 4.96-0.53 0.5-1.05 1-1.6 1.51-1.64 1.58-1.64 1.58-3.49 4.2 0.01 2.67 0.01 2.67 1 5 0.33 1.67 0.67 3.33 1 5-3.79-1.3-6.17-2.79-8.99-5.62-0.7-0.71-1.41-1.42-2.14-2.15-0.72-0.73-1.44-1.47-2.18-2.23-0.74-0.74-1.48-1.47-2.25-2.23-5.44-5.5-5.44-5.5-5.44-7.77 0.56 0.08 1.11 0.16 1.69 0.25 3.48 0.28 6.24 0.45 9.23-1.51 0.91-0.85 0.91-0.85 1.83-1.72 0.69-0.63 1.38-1.27 2.08-1.92 0.72-0.7 1.43-1.39 2.17-2.1 0.73-0.71 1.46-1.41 2.22-2.14 2.26-2.2 4.49-4.43 6.72-6.67 0.76-0.76 1.53-1.53 2.32-2.31 0.73-0.73 1.46-1.46 2.2-2.21l1.99-1.99c1.63-1.61 1.63-1.61 2.55-3.68h2v-2c-14 5.94-27.6 12.3-40.8 20-2.23 1.03-2.23 1.03-6.23 1.03-2.19-4.34-2.19-4.34-1.36-7.24 0.41-0.75 0.83-1.51 1.25-2.29 0.46-0.86 0.92-1.73 1.39-2.62 0.51-0.92 1.01-1.84 1.53-2.79 5.84-11.1 10.6-22.4 15.2-34.1-1.27 1.08-2.53 2.17-3.79 3.25-1.05 0.91-1.05 0.91-2.13 1.83-2.56 2.36-4.71 4.91-6.85 7.63-0.61 0.64-0.61 0.64-1.23 1.29h-2l-2 4h-2v2c-1.88 2.12-1.88 2.12-4 4h-2c-1.91 3.17-2.16 5.11-1.62 8.75 0.11 0.8 0.22 1.6 0.33 2.42 0.14 0.91 0.14 0.91 0.29 1.83-3.1-1.37-5.12-2.92-7.44-5.38-2.11-2.19-4.07-4.01-6.5-5.87-1.02-0.87-1.02-0.87-2.06-1.75v-3c4.82 0.94 4.82 0.94 7.12 1.75 0.62 0.08 1.24 0.16 1.88 0.25 1.65-1.4 1.65-1.4 3-3h2l1-3h2c0.22-0.56 0.44-1.11 0.67-1.68 1.75-3.06 4-5.01 6.59-7.39 1.05-0.99 2.1-1.98 3.14-2.97 1.64-1.55 3.29-3.08 4.96-4.6 6.68-5.66 6.68-5.66 10.1-13.3-0.25-2.5-0.66-4.66-1.48-7.03z" fill="#030303"/>
<path transform="translate(539,498)" d="m0 0c-0.52 2.76-1.11 5.33-2 8 1.04 1.76 1.04 1.76 2.73 3.47 0.65 0.71 1.3 1.41 1.97 2.14 4 4.15 8.03 8.27 12.1 12.3l4.53 4.53c0.96 0.97 1.92 1.93 2.89 2.89l2.62 2.62c1.97 2.05 1.97 2.05 4.14 3.01v2c3.4 0.68 3.4 0.68 7 1l2-2h3c-0.56 3.88-2.28 5.63-5.04 8.33-1.21 1.2-1.21 1.2-2.45 2.42-0.85 0.83-1.7 1.65-2.57 2.5-1.28 1.26-1.28 1.26-2.59 2.55-2.11 2.07-4.23 4.14-6.35 6.2-1.49-0.5-1.49-0.5-3-1 0.5-0.84 0.5-0.84 1-1.69 1.2-2.77 1.37-4.3 1-7.31-1.77-2.63-1.77-2.63-4.19-5.06-1.16-1.26-1.16-1.26-2.35-2.54-2.38-2.32-4.83-4.38-7.46-6.4-5.92 2.63-11.7 7.35-15 13 0.08 4.15 2.99 6.32 5.81 9.06 0.88 0.86 1.75 1.72 2.65 2.6 2.11 1.95 4.13 3.77 6.54 5.34 1.99-0.19 1.99-0.19 4-1 1.67-0.34 3.33-0.68 5-1-1.3 3.77-2.77 6.15-5.59 8.95-0.7 0.7-1.4 1.41-2.13 2.13-0.73 0.71-1.46 1.43-2.22 2.17-0.73 0.73-1.46 1.46-2.21 2.22-5.45 5.4-5.45 5.4-8.85 6.53l-1-3c0.39-0.76 0.78-1.53 1.19-2.31 0.27-0.89 0.53-1.78 0.81-2.69-2.71-4.78-6.21-8.56-10-12.5-0.58-0.59-1.15-1.17-1.75-1.78-1.21-1.23-2.43-2.47-3.65-3.69-1.86-1.88-3.7-3.78-5.53-5.68l-3.57-3.6c-0.54-0.56-1.08-1.13-1.64-1.71-3.74-3.7-6.37-4.9-11.8-5.08-2.81 0.36-2.81 0.36-5 1 1.99-3.56 4.11-6.35 7.01-9.21 0.76-0.75 1.52-1.5 2.3-2.27s1.57-1.54 2.38-2.33c0.79-0.79 1.59-1.58 2.41-2.39 1.96-1.94 3.93-3.87 5.9-5.8l2 2c-0.35 0.54-0.7 1.07-1.06 1.62-1.35 3.41-1.17 4.9 0.06 8.38 2.45 2.62 5.17 4.8 8 7 0.99 0.8 1.98 1.61 3 2.44 0.66 0.51 1.32 1.03 2 1.56 5.07-3.69 10.9-8.47 12.8-14.6 0.46-2.61 0.46-2.61-1.83-4.84-0.99-0.84-1.98-1.69-3-2.56-0.83-0.82-0.83-0.82-1.68-1.65-3.03-2.87-4.5-4.26-8.76-4.73-0.84 0.13-1.69 0.25-2.56 0.38v2h-3c0.94-5.26 4.44-8.23 8-12 0.85-0.9 1.7-1.81 2.58-2.74 7.02-7.26 7.02-7.26 10.4-7.26z" fill="#030303"/>
<path transform="translate(852,405)" d="m0 0c7.6 0.51 14.8 1.64 22.2 3.38 1.41 0.31 1.41 0.31 2.85 0.63 8.55 1.96 16.6 4.13 21.8 11.7 1.7 4.93 1.19 8.71-0.79 13.4-3.02 5.5-6.34 7.51-12.1 9.85 2.75 15 2.75 15 10.6 27.5 1.38 1.48 1.38 1.48 1.38 4.48-12-2.01-12-2.01-16-5-5.3-7.58-7.44-17.2-10-26l-5-1c-2.9 9.37-2.9 9.37-3 19 2.43 1.79 2.43 1.79 5 3v3c-6.44 0.36-12.2-1-18.4-2.5-1.02-0.24-2.03-0.48-3.08-0.72-2.5-0.59-4.99-1.18-7.48-1.78v-2c1.26-0.12 2.52-0.25 3.81-0.38 2.26-0.49 2.26-0.49 4.19-1.62 1.04-1.75 1.04-1.75 1.53-3.99 0.23-0.9 0.47-1.8 0.71-2.72 1.44-6.23 2.78-12.5 4.03-18.7 0.48-2.4 0.98-4.79 1.48-7.18 0.31-1.53 0.61-3.06 0.92-4.6 0.15-0.71 0.3-1.41 0.45-2.14 0.75-3.82 1.18-6.94-0.12-10.6-2.5-1.7-2.5-1.7-5-3v-2zm21 9c-3.62 7.4-5.65 15.7-5 24 1.73 1.73 3.96 1.29 6.31 1.38 4.55 0 4.55 0 8.25-2.5 2.91-5.81 4.16-10.4 3.44-16.9-2.18-2.69-3.91-4.46-7-6-2-0.04-4-0.04-6 0z" fill="#030303"/>
<path transform="translate(932,423)" d="m0 0c23.8 9.25 23.8 9.25 27 14l-10 1c-2.97 6.6-5.94 13.2-9 20 4.83-1.89 4.83-1.89 9.75-3.81 1.51-0.59 1.51-0.59 3.05-1.19 0.81-0.31 1.61-0.63 2.43-0.96 0.82-0.32 1.64-0.64 2.48-0.97 2.4-1.12 4.3-2.32 6.29-4.07 0.48-2.28 0.48-2.28 0.25-4.69-0.05-1.21-0.05-1.21-0.11-2.45-0.05-0.61-0.09-1.23-0.14-1.86 7.15 1.87 13.5 4.5 20 8v3c-0.83 0.14-1.65 0.27-2.5 0.41-9.92 1.85-18.4 5.29-27.5 9.59 0.56 4.44 1.15 8.88 1.75 13.3 0.16 1.25 0.31 2.49 0.48 3.77 1.26 9.29 3.46 17.6 7.77 25.9-3 1-3 1-5.3 0.18-11.3-5.73-11.3-5.73-13.7-11.7-1.5-5.39-2.11-10.9-2.83-16.4-0.12-0.87-0.24-1.73-0.36-2.62-0.1-0.79-0.2-1.57-0.31-2.38-0.41-2.37-0.41-2.37-2.47-5.08h-2c-0.25 0.64-0.5 1.28-0.75 1.94-0.71 1.75-1.45 3.48-2.27 5.18-2.99 6.16-2.99 6.16-2.98 12.9 1.92 2.25 1.92 2.25 4 4v2c-5.95-0.57-10.9-2.94-16.3-5.38-0.92-0.39-1.84-0.79-2.79-1.21-0.87-0.39-1.74-0.78-2.64-1.18-0.79-0.36-1.59-0.71-2.41-1.08-1.85-1.15-1.85-1.15-2.85-4.15h9c0.28-0.71 0.56-1.41 0.85-2.14 1.16-2.89 2.36-5.75 3.58-8.61 0.46-1.11 0.93-2.21 1.41-3.35 0.49-1.14 0.97-2.28 1.47-3.46 1.43-3.37 2.86-6.74 4.27-10.1 0.96-2.24 1.93-4.48 2.93-6.7 0.69-1.6 0.69-1.6 1.41-3.22 0.42-0.95 0.85-1.89 1.28-2.87 0.87-2.75 0.88-3.9-0.2-6.54-0.54-0.68-1.07-1.36-1.62-2.06-0.69-0.96-0.69-0.96-1.38-1.94l1-3z" fill="#030303"/>
<path transform="translate(777,402)" d="m0 0h47c0.98 3.9 0.95 6.31 0.56 10.2-0.1 1.08-0.2 2.16-0.31 3.27-0.08 0.82-0.16 1.64-0.25 2.48-1.85-0.22-1.85-0.22-4-1-1.44-2.24-2.46-4.55-3.56-6.97-1.29-2.25-1.29-2.25-3.88-2.8-4.79-0.43-8.88-0.4-13.6 0.77v20l20 2-1 4h-19v23h19c0.99-2.64 1.98-5.28 3-8 4-1 4-1 6 0v14h-50l-1-4 7-2c1.05-17 1.11-34 1-51-2.97-0.5-2.97-0.5-6-1l-1-3z" fill="#030303"/>
<path transform="translate(655 430)" d="m0 0c10.2 7.34 19.2 18.8 27 28.5 6.03 7.49 10.8 12.6 20 15.9-2.28 2.58-4.37 3.77-7.56 5.04-0.88 0.35-1.76 0.7-2.67 1.06s-1.83 0.72-2.77 1.08c-0.92 0.37-1.83 0.74-2.77 1.12-6.83 2.7-6.83 2.7-10.2 2.7 0.88-4.88 0.88-4.88 2-6 0.59-2.24 0.59-2.24 0-5-1.8-2.53-3.84-4.77-6-7-4.15 0.67-7.79 2-11.7 3.56-6.09 2.44-6.09 2.44-8.31 2.44 0.09 1.94 0.2 3.87 0.31 5.81 0.09 1.62 0.09 1.62 0.18 3.27 0.29 2.89 0.29 2.89 1.85 4.79 2.5 1.7 4.73 1.32 7.66 1.13l1 3c-2.56 1.15-5.12 2.29-7.69 3.44-0.72 0.32-1.44 0.65-2.18 0.98-3.7 1.64-7.09 3.01-11.1 3.58 0.61-2.96 1.25-4.38 3-7 0.29-2.74 0.29-2.74 0.23-5.87v-3.64c-0.02-1.3-0.03-2.6-0.04-3.93-0.01-1.34-0.01-2.68-0.01-4.02-0.03-6.89-0.2-13.8-0.55-20.6-0.06-1.28-0.12-2.55-0.19-3.86-0.12-2.45-0.27-4.89-0.44-7.33-0.05-1.1-0.11-2.2-0.17-3.34-0.1-1.45-0.1-1.45-0.19-2.93 0.36-2.43 0.36-2.43 2.21-4.19 6.1-3.54 6.1-3.54 9.15-2.68zm-4 12.4c-0.1 8.72-0.17 17.3 1 26 5.85-0.45 10.1-3.04 15-6-1.34-3.9-3.01-6.43-5.81-9.44-2.45-2.66-4.85-5.32-7.13-8.12-0.68-0.81-1.36-1.61-2.06-2.44h-1z" fill="#030303"/>
<path transform="translate(595,456)" d="m0 0c3.34 1.55 4.83 2.76 6.75 5.94 0.43 0.69 0.86 1.38 1.3 2.09 0.95 1.97 0.95 1.97 0.95 4.97-6.54-0.77-6.54-0.77-9.5-2.25-3.89-1.17-6.02 0.39-9.5 2.25-1.68 1.31-3.36 2.64-5 4h-2c1.46 2.27 2.92 4.54 4.38 6.81 0.41 0.65 0.82 1.29 1.24 1.95 1.78 2.76 3.56 5.51 5.38 8.24 4.33-0.56 7.04-2.12 10.6-4.56 5.05-3.44 5.05-3.44 8.38-3.44-0.25 3.3-1.12 4.1-3.65 6.36-1.09 0.81-2.18 1.6-3.29 2.39-0.55 0.41-1.1 0.82-1.67 1.25-4.1 3-4.1 3-6.39 3 3.13 6.91 7.06 13.2 12 19 0.99 0.33 1.98 0.66 3 1 3.01-1.44 3.01-1.44 6.12-3.56 1.08-0.68 2.16-1.37 3.26-2.07 2.85-2.16 2.85-2.16 3.48-5.41 0.16-3.32 0.21-6.63 0.14-9.96l5-1c3.47 5.44 3.47 5.44 7 11-3.53 4-7.25 6.47-11.9 9.13-3.96 2.36-7.83 4.86-11.7 7.37-0.74 0.48-1.48 0.96-2.24 1.45-4.58 2.98-9.14 6-13.6 9.12-1.57 0.93-1.57 0.93-3.57 0.93v-4l2-1c-0.42-6.17-2.44-10.1-5.75-15.2-0.48-0.76-0.96-1.53-1.45-2.32-5.68-8.98-11.7-17.7-17.8-26.4-2.97 0.33-5.94 0.66-9 1 1.18-4.74 1.97-5.05 5.93-7.61 1.02-0.67 2.05-1.35 3.1-2.04 1.09-0.69 2.17-1.39 3.28-2.1 1.56-1.02 1.56-1.02 3.15-2.05 2.1-1.38 4.21-2.74 6.32-4.1 5.1-3.32 10.2-6.71 15.2-10.1z" fill="#030303"/>
<path transform="translate(731,408)" d="m0 0c-1.21 3.62-1.8 3.4-5 5-3.14 9.41 2.31 24.6 4.12 34.4 0.29 1.52 0.57 3.05 0.84 4.57 0.68 3.69 1.36 7.37 2.04 11 2.23-0.28 4.46-0.58 6.69-0.88 1.86-0.24 1.86-0.24 3.76-0.49 5.57-0.89 5.57-0.89 9.8-4.25 1.08-3.44 1.39-6.8 1.75-10.4 1.98-0.5 1.98-0.5 4-1 1.84 5.65 2.55 11.1 3 17-4.5 2.07-9 2.86-13.8 3.69-0.85 0.15-1.7 0.3-2.57 0.46-2.7 0.47-5.39 0.94-8.09 1.41-2.7 0.48-5.39 0.95-8.09 1.43-1.68 0.29-3.35 0.59-5.03 0.88-3.8 0.67-7.6 1.35-11.4 2.13v-4l5-2c-0.54-9.4-1.78-18.5-3.44-27.8-0.21-1.26-0.43-2.52-0.66-3.81-1.08-6.2-2.26-12.3-3.9-18.4l-8-2v-2c20.8-5.44 20.8-5.44 29-5z" fill="#030303"/>
<path transform="translate(1e3 460)" d="m0 0c5.14 0.51 8.82 3.09 13.1 5.81 0.71 0.44 1.42 0.88 2.15 1.33 3.64 2.3 7 4.52 9.79 7.86v2c-0.55-0.15-1.09-0.3-1.65-0.46-2.85-0.44-4.59-0.42-7.35 0.46-3.19 3.4-5.54 7.23-7.92 11.2-1.61 2.67-3.38 5.22-5.14 7.79-1.32 2-2.63 4-3.94 6-0.38 0.56-0.75 1.13-1.14 1.71-1.16 1.73-2.29 3.48-3.42 5.23-0.68 1.04-1.37 2.08-2.07 3.15-1.56 3.31-1.53 4.51-0.37 7.91 0.63 1.68 1.29 3.35 2 5-6.03-0.89-10.3-4.04-15.3-7.31-0.93-0.58-1.87-1.17-2.82-1.77-0.88-0.57-1.76-1.13-2.67-1.72-0.81-0.52-1.61-1.04-2.44-1.57-0.58-0.54-1.16-1.08-1.76-1.63v-4c0.6 0.13 1.21 0.26 1.83 0.39 0.8 0.14 1.6 0.28 2.42 0.42 0.79 0.15 1.58 0.3 2.39 0.46 2.52-0.04 2.52-0.04 4.27-2.16 2.81-4.18 5.61-8.37 8.34-12.6 0.57-0.89 1.14-1.77 1.73-2.69 1.15-1.78 2.29-3.55 3.43-5.33 1.4-2.18 2.81-4.34 4.22-6.51 0.73-1.13 1.46-2.27 2.18-3.41 0.63-0.97 1.25-1.93 1.9-2.93 1.4-2.84 1.7-4.51 1.29-7.63-1.44-1.69-1.44-1.69-3-3v-2z" fill="#030303"/>
<path transform="translate(772,1210)" d="m0 0c2.62-0.06 2.62-0.06 6 1 1.39 1.67 1.39 1.67 2.76 3.85 0.52 0.81 1.03 1.62 1.57 2.46 0.55 0.89 1.1 1.78 1.67 2.69 0.58 0.92 1.16 1.84 1.76 2.78 2.47 3.91 4.93 7.83 7.38 11.8 0.9 1.42 0.9 1.42 1.81 2.88 0.54 0.86 1.08 1.71 1.63 2.6 1.27 2.11 1.27 2.11 3.42 2.99-0.01-1.13-0.01-1.13-0.02-2.29-0.02-3.45-0.03-6.89-0.04-10.3-0.01-1.19-0.02-2.38-0.03-3.61 0-1.73 0-1.73-0.01-3.5-0.01-1.58-0.01-1.58-0.01-3.2 0.11-3.1 0.53-6.02 1.11-9.07h5c0.11 14.4 0.03 28.7-1 43l-4 2c-3.48-3.29-6.15-6.5-8.63-10.6-0.64-1.05-1.28-2.09-1.95-3.18-0.65-1.08-1.31-2.16-1.98-3.28-1.31-2.16-2.62-4.32-3.94-6.48-0.58-0.95-1.16-1.9-1.75-2.88-1.71-2.52-3.53-4.51-5.75-6.58 0.01 0.91 0.02 1.82 0.04 2.75 0.06 9.14-0.32 18.1-1.04 27.2-3.75 1.12-3.75 1.12-6 0 0.12-4.84 0.24-9.68 0.37-14.5 0.05-1.65 0.09-3.29 0.13-4.93 0.06-2.38 0.12-4.75 0.18-7.12 0.02-0.73 0.04-1.45 0.05-2.2 0.14-4.8 0.61-9.48 1.27-14.2z" fill="#030303"/>
<path transform="translate(671,1183)" d="m0 0c3.17 2.07 4.66 3.44 5.47 7.19 0.26 3.98 0.15 6.08-2.47 9.19-3.6 1.94-7.12 3.31-11 4.62 1.49 5.94 1.49 5.94 3 12l5-2c1.66-0.37 3.32-0.71 5-1-0.38 3.31-1.21 4.22-3.62 6.69-1.83 2.04-2.36 2.92-2.49 5.7 0.27 2.24 0.62 4.41 1.11 6.61-2.87-0.57-3.86-0.86-6-3-1.86-0.34-3.74-0.6-5.62-0.81-5.72-0.89-10.1-2.26-14.4-6.19-2.73-4.01-3.7-7.18-3-12 2.73-5.7 6.4-7.69 12-10-0.05-0.65-0.09-1.3-0.14-1.98-0.24-5.89 0.01-9.44 4.14-14 4.35-2.71 8.18-2.3 13-1zm-9.12 4.62c-2.26 2.86-2.72 4.77-2.88 8.38 1.94 2.36 1.94 2.36 5.44 2.31 3.41-0.06 3.41-0.06 5.56-1.37 1.63-3.17 0.85-5.59 0-8.94-3.46-2.31-4.74-2.97-8.12-0.38zm-11.5 19.6c-2.78 3-2.78 3-3.38 6.75 1.3 3.53 2.45 5.56 5.38 7.94 3.05 1.23 4.52 1.03 7.62 0.06 1.54-4.79 0.7-9.36-1-14-1.3-1.81-1.3-1.81-3-3-3.2-0.33-3.2-0.33-5.62 2.25z" fill="#030303"/>
<path transform="translate(555,1105)" d="m0 0c2.06 1.49 2.06 1.49 4 4-0.06 2.94-0.33 5.34-0.89 8.2-0.2 1.18-0.2 1.18-0.41 2.39-0.44 2.51-0.91 5.02-1.39 7.53-0.3 1.7-0.6 3.4-0.89 5.1-2.19 12.3-2.19 12.3-3.42 14.8 3.54-1.98 6.26-4.05 9.07-6.98 1.1-1.13 1.1-1.13 2.22-2.28 1.52-1.58 3.04-3.17 4.56-4.76 0.73-0.75 1.46-1.5 2.22-2.27 0.66-0.69 1.32-1.37 1.99-2.08 2.03-1.71 3.35-2.23 5.94-2.63 0.5 1.48 0.5 1.48 1 3-1.22 1.8-1.22 1.8-3.06 3.75-0.97 1.04-0.97 1.04-1.96 2.11-0.65 0.71-1.31 1.41-1.98 2.14-1.59 1.91-3.17 3.82-4.74 5.75-1.26 1.25-1.26 1.25-3.26 1.25-0.2 0.53-0.41 1.06-0.62 1.61-1.98 3.42-4.68 5.9-7.5 8.64-0.85 0.83-0.85 0.83-1.71 1.68-1.39 1.36-2.78 2.72-4.17 4.07-1.94-0.75-1.94-0.75-4-2-1.42-3.5-0.75-6.38-0.04-10 0.23-1.16 0.45-2.33 0.68-3.54 0.24-1.22 0.49-2.43 0.74-3.69 2.12-10.8 2.12-10.8 3.62-21.8-6.75 5-12.9 10.4-18.5 16.6-1.28 1.41-1.28 1.41-3.53 3.35-2.31-0.19-2.31-0.19-4-1 4.19-9.12 12.9-16 19.9-23 0.98-0.98 1.96-1.95 2.94-2.93 2.37-2.36 4.74-4.71 7.12-7.07z" fill="#030303"/>
<path transform="translate(1129,993)" d="m0 0c4.42 2.21 6.92 4.5 9 9v3h20l-1 5-20 2c-2.31 4.88-2.31 4.88-2 10 6.43 2.97 6.43 2.97 13 6v5c-5.19-0.54-9.28-1.74-14.1-3.87-0.64-0.28-1.29-0.57-1.95-0.86-2.05-0.89-4.09-1.8-6.13-2.71-1.38-0.6-2.76-1.21-4.14-1.81-10.6-4.66-10.6-4.66-14.7-6.75 0.36-7.97 4.07-16.6 9.81-22.2 4.23-2.32 7.48-2.66 12.2-1.75zm-13 10c-2.38 3.94-3.15 6.45-3 11 1.89 0.87 3.79 1.72 5.69 2.56 1.05 0.48 2.11 0.95 3.2 1.44 3.31 1.06 4.88 1.23 8.11 0 2.99-5.05 3.75-9.19 3-15-1.9-3.15-1.9-3.15-5-5-5.96-1.06-8.34 0.32-12 5z" fill="#030303"/>
<path transform="translate(1080,1077)" d="m0 0c4.02 2.27 6.48 4.89 8.44 9.06 0.52 2.75 0.6 5.16 0.56 7.94 1.29 0.16 1.29 0.16 2.6 0.33 6.27 0.87 11.7 1.78 17.4 4.67l-2 3c-2-0.14-4-0.29-6-0.44-1.19-0.08-2.37-0.16-3.59-0.25-2.73-0.25-5.24-0.67-7.91-1.25-3.35-0.4-3.35-0.4-5.13 1.07-2.1 2.28-3.39 4.03-3.31 7.18 0.83 1.87 0.83 1.87 2.94 2.69v2c0.58 0.25 1.15 0.49 1.75 0.75 2.6 1.44 4.33 2.99 6.25 5.25v3c-5.25-0.43-7.73-2.02-11.6-5.5-1.05-0.91-2.1-1.83-3.15-2.73-0.8-0.7-0.8-0.7-1.61-1.4-2.56-2.16-5.24-4.13-7.93-6.12-4.4-3.25-8.6-6.62-12.7-10.2 4.82-9.64 12.8-21.6 25-19zm-15.9 12.2c-0.7 0.91-1.4 1.82-2.12 2.75 1.43 3.33 3.15 5.32 5.88 7.69 0.67 0.6 1.35 1.2 2.05 1.82 2.08 1.5 3.57 2.07 6.07 2.49 1.15-1.29 2.29-2.58 3.44-3.88 0.64-0.71 1.27-1.43 1.93-2.17 2.02-2.42 2.59-3.61 3.01-6.76-0.5-4.21-2.22-5.5-5.38-8.19l-1-1c-6.17-0.88-10.1 2.77-13.9 7.25z" fill="#030303"/>
<path transform="translate(968 1174)" d="m0 0c2.38 2.19 3.21 3.08 3.44 6.25-6.75-0.87-6.75-0.87-9-2-5.82-0.53-5.82-0.53-10.9 1.87-3.36 3.46-3.4 5.97-3.35 10.6 0.81 7.09 5.11 14.9 10.5 19.4 3.69 1.51 6.82 1.73 10.8 1.13 3.58-1.64 4.79-2.69 7-6-0.1-4.34-0.1-4.34-2-8-1.69 0.09-3.38 0.25-5.06 0.44-1.38 0.15-1.38 0.15-2.79 0.31-1.07 0.12-1.07 0.12-2.15 0.25v-4c2.59-1.46 2.59-1.46 5.17-2.93 1.65-0.96 3.24-2.01 4.83-3.07h3c1.01 1.7 2.01 3.41 3 5.13 0.55 0.95 1.11 1.9 1.68 2.88 1.46 3.31 1.68 5.41 1.32 8.99-2.5 4.8-5.19 7.55-10 10-6.37 1.87-11.8 2.75-18 0-6.71-4.09-10.7-11.2-12.9-18.5-1.35-5.81-2.03-11.2 1.14-16.5 6.26-7.87 15.1-10.8 24.4-6.24z" fill="#030303"/>
<path transform="translate(850 1211)" d="m0 0c5.08 3.92 7.59 9.08 8.72 15.3 0.53 6.97 0.71 12.9-3 19-5.13 5.37-10.8 7.77-18.2 8.18-2.92 0-5.83-0.05-8.75-0.18-1.56-9.96-3.07-19.9-4.19-29.9-0.08-0.74-0.17-1.48-0.25-2.24-0.39-3.62-0.65-7.18-0.56-10.8 8.79-2.31 18-4.13 26.3 0.67zm-19.3 3.33c-1.23 7.06 0.43 15 1.37 22 0.13 1.03 0.26 2.07 0.39 3.13 0.13 0.99 0.25 1.98 0.39 2.99 0.11 0.89 0.23 1.78 0.35 2.7 0.34 2.37 0.34 2.37 2.5 4.18 6.03 0.58 9.94-0.71 14.8-4.31 3.97-5.36 3.4-11.2 2.79-17.5-0.9-5.34-2.64-9.41-6.6-13.1-3.01-1.65-5.56-2.22-8.94-2.25-1.02-0.02-1.02-0.02-2.06-0.04-2.27 0.12-2.27 0.12-4.94 2.23z" fill="#030303"/>
<path transform="translate(1144,945)" d="m0 0v3c-0.78 0.33-1.56 0.66-2.37 1-5.8 2.5-5.8 2.5-9.69 7.16-0.72 5.17 0.21 9.43 3.06 13.8 5.71 4.67 13.8 5.7 21 6 4.22-0.64 6.53-2.49 9.44-5.62 1.98-4.3 1.93-7.73 1.56-12.4-3.79-2.13-6.66-2.17-11-2-0.99 2.31-1.98 4.62-3 7-0.99-0.33-1.98-0.66-3-1 0.47-2.15 0.95-4.29 1.44-6.44 0.26-1.19 0.53-2.39 0.81-3.62 0.75-2.94 0.75-2.94 1.75-3.94 5.78 0.05 11 1.03 16 4 3.16 4.84 3.44 8.82 2.64 14.5-1.4 5.47-4.2 9.19-8.33 12.9-8.52 4.02-17.9 2.83-26.6-0.26-4.75-2.13-7.93-4.66-10.7-9.18-1.83-6.68-1.18-12.8 2-19 4.67-5.6 7.88-6.13 15-6z" fill="#030303"/>
<path transform="translate(606 1147)" d="m0 0c3.81 2.35 6.08 4.43 8.51 8.22 1.07 4.52 0.72 8.17-0.13 12.7h-4c-0.16-1.06-0.31-2.12-0.48-3.21-0.23-1.39-0.47-2.78-0.7-4.17-0.11-0.7-0.21-1.4-0.31-2.12-0.36-2.3-0.36-2.3-1.51-5.5-3.89-2.36-7.51-2.48-12-2-6.94 3.32-12 10.2-15 17.2-1.03 3.96-1.28 5.97 0 9.82 2.8 4.62 5.89 6.35 11 8 2.26 0.18 2.26 0.18 4-1 2.01-2.18 2.01-2.18 3-5-0.89-3.86-1.65-4.77-5-7l1-4c4.78 1.64 8.8 4.26 13 7-1.99 5.8-4.84 11.6-10 15-4.88 0.91-8.97 0.4-13.2-2.13-4.45-3.13-7.99-6.61-9.75-11.9-0.89-8.68 1.19-14.8 6.38-21.8 6.6-8.09 14.8-12.5 25.2-8.16z" fill="#030303"/>
<path transform="translate(466,918)" d="m0 0-1 4c-2.44 0.5-4.87 1-7.31 1.5-0.69 0.14-1.38 0.29-2.09 0.43-2.93 0.6-5.61 1.07-8.6 1.07 0.22 1.16 0.43 2.32 0.66 3.51 0.28 1.54 0.56 3.08 0.84 4.61 0.14 0.77 0.29 1.53 0.43 2.31 0.77 4.25 1.24 8.23 1.07 12.6 1.18-0.22 2.36-0.43 3.58-0.66 1.56-0.28 3.11-0.56 4.67-0.84 0.78-0.14 1.55-0.29 2.36-0.43 0.75-0.14 1.5-0.27 2.28-0.41 0.69-0.13 1.38-0.26 2.1-0.38 2.01-0.28 2.01-0.28 6.01-0.28 0.5 2.48 0.5 2.48 1 5-8.6 2.35-17.2 3.99-26 5.36-2.12 0.33-4.23 0.67-6.35 1.01-10.3 1.63-10.3 1.63-12.6 1.63v-5l19-4c-1.49-10.9-1.49-10.9-3-22-4.67 0.65-4.67 0.65-9.33 1.32-3.92 0.53-7.71 0.78-11.7 0.68v-4c9.5-2.63 19-4.66 28.8-6.31 1.05-0.19 2.09-0.37 3.17-0.56 0.99-0.16 1.98-0.32 3-0.49 0.88-0.15 1.77-0.3 2.68-0.45 2.41-0.19 4.11 0.07 6.4 0.81z" fill="#030303"/>
<path transform="translate(1026,1125)" d="m0 0v26c5.94 0.99 5.94 0.99 12 2 2.94 0.67 5.84 1.36 8.75 2.12 0.71 0.19 1.42 0.37 2.15 0.56 1.7 0.43 3.4 0.88 5.1 1.32v4c-6.54 0.39-12.3-0.81-18.6-2.34-3.22-0.63-6.1-0.78-9.37-0.66-0.59 3.96-0.72 5.95 1.59 9.33 1.3 1.55 2.62 3.07 3.98 4.56 1.43 2.11 1.43 2.11 1.14 4.38-0.23 0.57-0.47 1.14-0.71 1.73-9.09-1.24-17.3-16.4-22.7-23.4-1.33-1.68-2.73-3.28-4.14-4.88-2.16-2.76-2.16-2.76-1.97-5.64 0.27-0.7 0.53-1.4 0.81-2.12 3.17 0.3 4.06 1.06 6.29 3.43 1.16 1.49 1.16 1.49 2.33 3.01 3.04 3.91 3.04 3.91 6.38 7.56 0.32-2.23 0.63-4.46 0.94-6.69 0.09-0.67 0.18-1.34 0.28-2.04 0.74-5.54 1.12-11.1 1.34-16.7 0.42-2.47 1.38-5.61 4.44-5.61z" fill="#030303"/>
<path transform="translate(353,798)" d="m0 0h180l1 3c-8.63 1.25-17.2 1.09-25.9 1.02-1.71-0.01-3.41-0.02-5.12-0.03-4.61-0.02-9.22-0.06-13.8-0.09-4.82-0.04-9.65-0.06-14.5-0.09-9.13-0.06-18.2-0.12-27.4-0.18-10.4-0.08-20.8-0.14-31.2-0.21-21.4-0.13-42.8-0.27-64.1-0.42l1-3z" fill="#030303"/>
<path transform="translate(1066,798)" d="m0 0h181v3h-181v-3z" fill="#030303"/>
<path transform="translate(1098,1032)" d="m0 0c4.9 1.76 9.34 4.28 13.9 6.81 1.16 0.64 1.16 0.64 2.35 1.29 14.4 7.99 14.4 7.99 17.8 14.9 0.81 6.28-0.36 10.8-4 16-3.31 3.41-6.34 5.85-11.2 6.28-4.41-0.32-7.58-1.68-11.4-3.72-0.69-0.35-1.37-0.71-2.08-1.07-19.2-10.1-19.2-10.1-21.4-14.5l1-2c5.02 0.52 8.38 2.11 12.7 4.69 1.23 0.72 2.46 1.44 3.7 2.17 1.2 0.71 2.41 1.42 3.61 2.14 1.99 1.18 3.99 2.35 6 3.5 1.24 0.73 1.24 0.73 2.5 1.47 3.05 1.26 5.23 1.38 8.5 1.03 2.83-2.33 2.83-2.33 5-5l1-1c0.64-3.14 0.65-5.87 0-9-1.46-1.67-1.46-1.67-3.46-2.95-0.72-0.5-1.45-1.01-2.2-1.53-3.82-2.48-7.68-4.88-11.6-7.21-1.57-0.94-3.14-1.88-4.7-2.82-0.69-0.41-1.37-0.82-2.07-1.23-2.08-1.32-4.03-2.76-5.98-4.26l2-4z" fill="#030303"/>
<path transform="translate(737,1204)" d="m0 0 4 1c3.72 15.5 6.38 31.2 9 47-2.42-0.37-2.42-0.37-5-1-2.4-3.96-2.46-8.49-3-13-11.2-1.42-11.2-1.42-21.5 1.78-1.52 2.16-1.52 2.16-2.5 4.47-0.35 0.58-0.69 1.15-1.04 1.75h-4c1.22-4.87 2.7-8.55 5.44-12.8 0.7-1.11 1.41-2.22 2.13-3.36 0.39-0.61 0.77-1.21 1.17-1.83 2.9-4.59 5.68-9.26 8.49-13.9 2.12-3.48 4.22-6.9 6.77-10.1zm0 10c-7 8.19-7 8.19-10 18 4.62 0.66 9.24 1.32 14 2-0.63-9.55-0.63-9.55-2-19l-2-1z" fill="#030303"/>
<path transform="translate(477,968)" d="m0 0c1.37 3.93 2.72 7.87 4.06 11.8 0.39 1.12 0.78 2.24 1.18 3.4 0.55 1.6 0.55 1.6 1.11 3.25 0.51 1.48 0.51 1.48 1.03 3 0.62 2.54 0.62 2.54-0.38 5.54-1.8-0.5-1.8-0.5-4-2-1.4-2.55-2.31-5.25-3.25-8-0.27-0.74-0.54-1.47-0.81-2.23-1.94-5.42-1.94-5.42-1.94-7.77-0.84 0.29-1.69 0.58-2.55 0.88-1.1 0.37-2.2 0.74-3.33 1.12-1.09 0.37-2.18 0.74-3.3 1.12-2.82 0.88-2.82 0.88-4.82 0.88 0.56 1.54 0.56 1.54 1.13 3.11 0.48 1.36 0.96 2.72 1.43 4.08 0.25 0.67 0.5 1.34 0.75 2.04 1.38 3.97 2 6.72 0.69 10.8h-2c-3.46-8.41-3.46-8.41-7-17-7.17 1.49-7.17 1.49-14 4 0.9 4.56 1.88 8.93 3.62 13.2 1.21 3.3 1.7 5.31 1.38 8.75-1.88-0.22-1.88-0.22-4-1-1.1-1.96-1.1-1.96-1.92-4.52-0.3-0.92-0.61-1.84-0.92-2.79-0.3-0.97-0.6-1.94-0.91-2.94-0.32-0.96-0.63-1.91-0.96-2.89-1.43-4.45-2.48-8.15-2.29-12.9 39-13 39-13 42-13z" fill="#030303"/>
<path transform="translate(498,1021)" d="m0 0c0.78 1.67 0.78 1.67 1 4-1.84 2.52-1.84 2.52-4.5 5.25-0.94 0.99-1.88 1.97-2.82 2.96-0.88 0.92-1.77 1.84-2.68 2.79-1.16 1.3-2.3 2.61-3.44 3.94-3.07 3.53-6.21 6.99-9.37 10.4-0.48 0.52-0.96 1.04-1.46 1.58-1.88 2.05-3.77 4.08-5.73 6.04h-4c0.32-3.7 0.76-4.79 3.62-7.31 2.77-2.56 2.77-2.56 2.5-6.44-0.96-4.98-3.5-10.6-7.12-14.2-2.18-0.23-4.37-0.41-6.56-0.56-1.2-0.09-2.4-0.17-3.63-0.26-0.93-0.06-1.86-0.12-2.81-0.18l-1-4c4.08-0.48 8.17-0.96 12.2-1.44 1.71-0.2 1.71-0.2 3.45-0.41 10.8-1.25 21.4-2.37 32.3-2.15zm-20.2 5.44c-1.04 0.08-2.09 0.16-3.17 0.24-2.61 0.17-2.61 0.17-4.64 1.32 1.54 5.02 3.03 9.61 6 14l4-2v-2c0.59-0.26 1.18-0.52 1.79-0.79 2.37-1.3 3.76-2.61 5.52-4.65 0.53-0.59 1.07-1.19 1.62-1.81 0.35-0.57 0.7-1.15 1.07-1.75l-1-3c-3.75-0.05-7.44 0.14-11.2 0.44z" fill="#030303"/>
<path transform="translate(878,1202)" d="m0 0c2.94 8.29 4.86 16.7 6.75 25.3 0.25 1.08 0.5 2.15 0.75 3.26 0.32 1.47 0.32 1.47 0.66 2.96 0.89 2.64 1.57 3.88 3.84 5.49 3.29-0.3 3.29-0.3 6.88-1.31 4.16-1.05 7.82-1.91 12.1-1.69v4c-8.28 2.49-16.5 4.63-25 6-3.42-7.57-5.47-15.3-7.29-23.4-0.47-2.05-0.94-4.1-1.42-6.15-2.29-9.98-2.29-9.98-2.29-13.4 2-1 2-1 5-1z" fill="#030303"/>
<path transform="translate(513,1053)" d="m0 0c0.99 0.33 1.98 0.66 3 1-0.38 2.42-0.69 3.7-2.48 5.43-0.95 0.65-0.95 0.65-1.91 1.3-0.71 0.49-1.41 0.98-2.14 1.48-0.75 0.51-1.5 1.02-2.28 1.54-0.77 0.52-1.53 1.05-2.32 1.59-2.28 1.56-4.58 3.11-6.87 4.66-1.24 0.85-2.49 1.71-3.73 2.56-7.98 5.44-7.98 5.44-10.3 5.44 2.15 4.46 4.57 8.68 7.19 12.9 0.37 0.59 0.73 1.18 1.11 1.79 0.9 1.45 1.8 2.89 2.7 4.33l-3 2c-3.89-4.79-7.57-9.68-11-14.8-0.6-0.9-1.2-1.79-1.81-2.71-1.19-2.48-1.19-2.48-0.98-4.47 0.99-2.52 2-3.21 4.26-4.67 0.73-0.48 1.46-0.96 2.21-1.45 0.78-0.5 1.57-1 2.38-1.51 0.8-0.52 1.61-1.04 2.43-1.58l5.01-3.21c2.4-1.53 4.77-3.08 7.15-4.63 1.43-0.93 2.86-1.85 4.29-2.77 0.66-0.44 1.33-0.88 2.02-1.33 1.63-1.03 3.33-1.96 5.04-2.86z" fill="#030303"/>
<path transform="translate(915,1190)" d="m0 0h5l4.11 11c0.69 1.86 1.38 3.71 2.07 5.57 7.27 19.6 7.27 19.6 6.82 25.4-1.85-0.2-1.85-0.2-4-1-1.32-2.05-1.32-2.05-2.45-4.76-0.63-1.49-0.63-1.49-1.27-3.02-2.12-5.34-4.15-10.7-6.09-16.1-0.41-1.1-0.82-2.2-1.23-3.33-0.58-1.59-0.58-1.59-1.17-3.22-0.34-0.95-0.69-1.9-1.04-2.88-0.75-2.7-0.9-4.9-0.75-7.69z" fill="#030303"/>
<path transform="translate(1040,1110)" d="m0 0c8.88 3.74 16.4 13.4 23.2 20.1 0.57 0.56 1.15 1.12 1.74 1.7 1.37 1.37 2.7 2.8 4.01 4.24v2c0.99 0.33 1.98 0.66 3 1v5c-5.43-0.31-7.99-3.44-11.6-7.12l-1.85-1.85c-1.29-1.3-2.58-2.6-3.86-3.9-1.96-2-3.93-3.98-5.91-5.96-1.25-1.26-2.5-2.52-3.75-3.79-0.59-0.59-1.19-1.18-1.8-1.8-4.13-4.23-4.13-4.23-5.25-7.58l2-2z" fill="#030303"/>
<path transform="translate(1135,919)" d="m0 0c9.84 0.38 19.6 1.22 29.3 2.5 1.5 0.2 1.5 0.2 3.02 0.4 3.95 0.53 7.81 1.07 11.7 2.1v5c-2.98 0.99-4 1.03-6.98 0.58-1.19-0.18-1.19-0.18-2.41-0.36-0.85-0.13-1.7-0.26-2.58-0.4-0.88-0.13-1.76-0.26-2.67-0.4-1.85-0.28-3.71-0.57-5.57-0.85-2.84-0.44-5.69-0.87-8.54-1.3-1.8-0.27-3.61-0.55-5.41-0.82-0.86-0.13-1.71-0.26-2.59-0.4-6.02-0.93-6.02-0.93-8.25-2.05l1-4z" fill="#030303"/>
<path transform="translate(540 1087)" d="m0 0c0.54 0.27 1.07 0.54 1.62 0.81-0.25 3.25-1.16 4.16-3.55 6.48-1.1 0.92-2.21 1.82-3.32 2.71-0.88 0.72-0.88 0.72-1.77 1.45-1.2 0.99-2.41 1.97-3.61 2.95-1.59 1.29-3.17 2.6-4.74 3.92-5.44 4.55-11 8.71-17 12.5-0.66-0.33-1.31-0.66-2-1 0.95-7.79 11.6-13.8 17.5-18.4 2.29-1.79 4.59-3.57 6.89-5.33 1.68-1.33 3.28-2.72 4.89-4.12 2.73-2.17 2.73-2.17 5.11-1.98z" fill="#030303"/>
<path transform="translate(783,951)" d="m0 0 10 1 1 4c-1.62 0.03-3.25 0.05-4.88 0.06-1.35 0.02-1.35 0.02-2.74 0.04-2.38-0.1-2.38-0.1-4.38-1.1l1-4z" fill="#030303"/>
<path transform="translate(807,644)" d="m0 0h10v4h-10v-4z" fill="#030303"/>
<path transform="translate(801,953)" d="m0 0 5 1v2h-6l1-3z" fill="#030303"/>
<path transform="translate(724,692)" d="m0 0c2.48 0.5 2.48 0.5 5 1l-3 3-2-1v-3z" fill="#030303"/>
<path transform="translate(873,904)" d="m0 0 3 2v2l-5-1 2-3z" fill="#030303"/>
<path transform="translate(795,644)" d="m0 0h5v2l-4 1-1-3z" fill="#030303"/>
<path transform="translate(932,876)" d="m0 0 4 2v2c-2.48-0.99-2.48-0.99-5-2l1-2z" fill="#030303"/>
<path transform="translate(664,721)" d="m0 0 2 1z" fill="#030303"/>
</svg>
